<!DOCTYPE svg PUBLIC "-//W3C//DTD SVG 1.1//EN" "http://www.w3.org/Graphics/SVG/1.1/DTD/svg11.dtd">

<!-- Uploaded to: SVG Repo, www.svgrepo.com, Transformed by: SVG Repo Mixer Tools -->
<!-- #0566ea #2775fc #78c5f3 -->
<svg fill="#0566ea" version="1.1" id="Capa_1" xmlns="http://www.w3.org/2000/svg" xmlns:xlink="http://www.w3.org/1999/xlink" viewBox="-31.26 -31.26 375.12 375.12" xml:space="preserve" stroke="#0566ea">

<g id="SVGRepo_bgCarrier" stroke-width="0" />

<g id="SVGRepo_tracerCarrier" stroke-linecap="round" stroke-linejoin="round"/>

<g id="SVGRepo_iconCarrier"> <g> <g> <g> <path d="M290.786,64.783c-7.955-0.612-16.522,0-24.479,1.224c2.448-4.284,4.284-8.568,6.12-12.24 c2.447-4.284,6.73-10.404,3.672-15.3c-3.061-4.284-7.344-2.448-11.017-0.612c-5.509,2.448-10.403,4.896-15.911,7.956 c-18.36-33.66-49.572-57.528-91.188-39.78c-50.184,21.42-66.096,100.98-47.735,151.164c-6.12-7.343-15.3-12.239-25.092-9.792 c-8.568,1.836-12.852,9.18-13.464,16.523c-3.06-1.836-6.732-3.061-11.016-2.448c-6.12,0.612-10.404,4.896-11.628,11.017 c0,0.612,0,1.225,0,1.836c-4.284-3.672-9.18-6.12-14.688-6.12c-10.404,0-20.808,10.404-14.688,20.809 c15.912,55.691,71.604,91.188,127.908,85.067c0,11.628,0.612,24.48-11.016,29.988c-3.672,1.836-1.224,7.344,3.06,6.731 c17.748-3.672,15.912-22.645,14.688-37.332c3.06-0.611,6.12-1.225,9.179-1.836c4.896-1.225,9.792-3.061,14.688-4.283 c5.508,14.075,4.896,26.314-0.612,40.392c-1.836,4.284,4.896,6.731,7.344,3.061c9.182-13.464,8.568-32.437-0.61-45.899 c51.407-22.645,76.5-75.276,81.396-130.355c4.284,3.672,8.568,6.732,13.464,8.568c3.673,1.836,9.182,0,8.568-4.896 c-1.224-10.404-2.448-21.42-5.508-31.824c-1.226-3.672-6.12-5.508-9.182-2.448c-2.446,2.448-4.896,5.508-7.344,7.956 c0-0.612,0-1.224,0-1.836c0-4.896-0.61-9.792-1.224-14.688c5.508-0.612,11.016-4.896,15.3-8.568 c5.508-4.284,9.792-9.18,14.076-14.076C296.296,68.455,293.235,64.783,290.786,64.783z M253.455,119.25 c-6.12-5.508-13.465-10.404-20.195-14.688c-4.284-2.448-10.404,1.836-8.568,6.732c4.284,11.628,11.017,22.032,18.973,31.212 c1.836,2.448,6.119,2.448,8.567,0.612c-0.611,3.06-0.611,6.12-1.224,8.568c-9.182,53.243-44.064,99.143-98.532,108.323 c-1.224-0.611-3.06-0.611-3.672,0.611c-1.836,0-3.672,0.612-4.896,0.612c-55.08,4.896-99.756-30.601-121.176-78.336 c1.224-9.792,14.688-10.404,21.42-4.284c5.508,4.896,7.344,12.239,11.628,18.972c1.836,3.062,6.732,1.225,6.12-2.447 c-0.612-4.283-2.448-9.181-5.508-13.465c-1.224-7.344-1.224-15.3,7.956-13.464s9.792,12.854,12.24,20.196 c1.224,3.06,6.12,3.06,6.12-0.612c0-5.508-1.836-12.239-4.896-17.136c0.612-7.956,4.284-17.135,14.076-14.688 c12.852,2.446,13.464,15.91,20.196,24.479c2.448,2.448,6.732,0.611,6.732-3.061c0-1.225,0-2.447-0.612-4.283 c3.06,4.283,9.18,0,7.344-4.896c-20.196-44.062-14.076-138.922,44.676-154.223c36.107-9.18,58.14,9.18,70.38,36.72 c-1.224,1.224-0.612,3.06,1.225,3.06C249.783,73.962,253.455,97.831,253.455,119.25L253.455,119.25z M251.62,50.095 c2.447-1.224,4.283-1.836,6.731-3.06c2.448-0.612,4.896-1.836,6.731-2.448c1.835-0.612,3.061-1.224,4.896-1.836 c-0.612,0.612-1.224,1.224-1.836,1.836c-2.448,6.732-7.344,12.24-11.017,18.972C255.291,58.663,253.455,54.378,251.62,50.095z M274.264,78.247c-3.672,2.448-7.344,4.284-11.017,6.732c-0.611-3.672-1.836-7.344-2.447-11.016c0-0.612,0.611-0.612,0.611-1.224 c6.731-0.612,13.464-0.612,20.195,0C279.159,74.575,276.712,76.411,274.264,78.247z"/> <path d="M205.72,50.095c-4.284-4.896-11.018-6.732-17.137-4.896c-5.509,1.836-9.792,7.344-9.181,13.464 c0.612,6.12,4.284,11.016,10.404,11.016c2.448,0,3.672-3.672,1.224-4.896c-6.119-3.06-4.283-11.628,2.448-11.628 c8.568-0.612,11.017,9.18,11.017,15.912c0,3.06,4.283,3.672,4.896,0.612C211.228,62.334,210.615,55.603,205.72,50.095z"/> <path d="M182.464,170.657c-3.673,1.836-1.836,6.731,1.224,7.956c7.344,2.447,18.36,0.611,20.809,10.403 c0.611,3.061,0.611,6.731-1.837,9.181c-4.283,3.672-11.628,1.225-16.522,0c-1.226,0-1.836,0-2.448,0.611 c-1.836-0.611-3.06-0.611-4.896-0.611s-3.061,2.447-1.836,3.672c3.673,3.061,14.688,9.181,8.567,14.688 c-7.344,6.12-14.076-3.672-14.076-10.403c-0.61-4.284-6.73-4.284-6.73,0c0,0.611,0,0.611,0,1.224l-0.612,0.612 c-2.448,6.12-7.344,22.031-16.523,12.853c-8.568-8.567,0-21.421,5.508-29.376c1.224-1.837-1.836-4.284-3.672-2.448 c-9.792,11.017-20.808,29.988-4.284,41.005c10.404,6.73,18.972-0.612,23.256-9.793c4.896,6.731,13.464,9.793,22.032,4.284 c5.508-3.672,7.956-11.017,4.283-16.523l0,0c3.673,0.611,7.956,0.611,11.628-1.836c5.509-3.061,7.956-9.181,7.956-15.3 C213.676,176.165,195.315,164.537,182.464,170.657z"/> </g> </g> </g> </g>

</svg>